# xmcd
#
# Track frame offsets:
#	183
#	9445
#	20775
#	33465
#	42048
#	56203
#	66320
#	83025
#	95870
#	105698
#	115520
#	126640
#	150595
#	159555
#	168950
#	182670
#	191423
#	199535
#	210333
#	217410
#	228645
#	235948
#	246323
#	263680
#	273705
#	285870
#	297393
#
# Disc length: 4110 seconds
#
# Revision: 6
# Processed by: cddbd v1.5.2PL0 Copyright (c) Steve Scherf et al.
# Submitted via: EZCDAudioConverter 1.3.4.1
#
DISCID=8e100c1b
DTITLE=Various Artist - Sound Gallery 2
DYEAR=1996
DGENRE=
TTITLE0=Laurie Johnson - Jason King Theme
TTITLE1=Keith Mansfield - Powerhouse Pop
TTITLE2=The Scottmen - The Good Word
TTITLE3=James Clarke - Two Lane Blacktop
TTITLE4=David Lindup - Zodiac
TTITLE5=Alan Moorhouse - That's Nice
TTITLE6=Lord Sitar - I Can See For Miles
TTITLE7=Paris Studio Group - Accroche Toi, Caroline
TTITLE8=Francis Lai - Marseillaise Generique
TTITLE9=Franck Pourcel - Francais Francais
TTITLE10=The Noveltones - Left Bank 2
TTITLE11=John Andrews Tartaglia - Light My Fire
TTITLE12=Laurie Johnson - Avengers Tag
TTITLE13=Brian Fahey - Open House
TTITLE14=E. Cap - Mama Elephant
TTITLE15=David Snell - International Flight
TTITLE16=Simon Park Orchestra - Up To Date
TTITLE17=Mike Vickers - On The Brink
TTITLE18=Johnny Pearson - Sports Car Special
TTITLE19=Brian Fahey - Countdown
TTITLE20=Syd Dale - Miss World
TTITLE21=Jack Parnell and His Orchestra - Enter The Dragon
TTITLE22=Steve Karmen Big Band - Breakaway
TTITLE23=Laurie Johnson - Caesar Smith
TTITLE24=Johnny Pearson and His Orchestra - The Rat Catchers
TTITLE25=Brian Fahey  - At The Sign Of The Swinging Cymbal
TTITLE26=George Martin - Theme One 
EXTD=
EXTT0=
EXTT1=
EXTT2=
EXTT3=
EXTT4=
EXTT5=
EXTT6=
EXTT7=
EXTT8=
EXTT9=
EXTT10=
EXTT11=
EXTT12=
EXTT13=
EXTT14=
EXTT15=
EXTT16=
EXTT17=
EXTT18=
EXTT19=
EXTT20=
EXTT21=
EXTT22=
EXTT23=
EXTT24=
EXTT25=
EXTT26=
PLAYORDER=
